HIERARCHY
ROOT Hips
{
	OFFSET	0.00	0.00	0.00
	CHANNELS 6 Xposition Yposition Zposition Zrotation Xrotation Yrotation
	JOINT LeftUpLeg
	{
		OFFSET	 0.126116	-0.014019	-0.065224
		CHANNELS 3 Zrotation Xrotation Yrotation
		JOINT LeftLeg
		{
			OFFSET	 0.000000	 0.000000	 0.569914
			CHANNELS 3 Zrotation Xrotation Yrotation
			JOINT LeftFoot
			{
				OFFSET	 0.000000	 0.000000	 0.544423
				CHANNELS 3 Zrotation Xrotation Yrotation
				JOINT LeftToeBase
				{
					OFFSET	 0.000000	 0.000000	 0.207117
					CHANNELS 3 Zrotation Xrotation Yrotation
					End Site
					{
						OFFSET	 0.000000	 0.000000	 0.207117
					}
				}
			}
		}
	}
	JOINT RightUpLeg
	{
		OFFSET	-0.124023	-0.008373	-0.065224
		CHANNELS 3 Zrotation Xrotation Yrotation
		JOINT RightLeg
		{
			OFFSET	 0.000000	 0.000000	 0.570047
			CHANNELS 3 Zrotation Xrotation Yrotation
			JOINT RightFoot
			{
				OFFSET	 0.000000	 0.000000	 0.544354
				CHANNELS 3 Zrotation Xrotation Yrotation
				JOINT RightToeBase
				{
					OFFSET	 0.000000	 0.000000	 0.207540
					CHANNELS 3 Zrotation Xrotation Yrotation
					End Site
					{
						OFFSET	 0.000000	 0.000000	 0.207540
					}
				}
			}
		}
	}
	JOINT Spine
	{
		OFFSET	 0.000184	-0.007763	 0.117403
		CHANNELS 3 Zrotation Xrotation Yrotation
		JOINT Spine1
		{
			OFFSET	 0.000000	 0.000000	 0.137269
			CHANNELS 3 Zrotation Xrotation Yrotation
			JOINT Spine2
			{
				OFFSET	 0.000000	 0.000000	 0.156879
				CHANNELS 3 Zrotation Xrotation Yrotation
				JOINT LeftShoulder
				{
					OFFSET	 0.080501	-0.002496	 0.160144
					CHANNELS 3 Zrotation Xrotation Yrotation
					JOINT LeftArm
					{
						OFFSET	 0.000000	 0.000000	 0.164363
						CHANNELS 3 Zrotation Xrotation Yrotation
						JOINT LeftForeArm
						{
							OFFSET	 0.000000	 0.000000	 0.364576
							CHANNELS 3 Zrotation Xrotation Yrotation
							JOINT LeftHand
							{
								OFFSET	 0.000000	 0.000000	 0.360812
								CHANNELS 3 Zrotation Xrotation Yrotation
								JOINT LeftHandIndex1
								{
									OFFSET	 0.000000	 0.000000	 0.086006
									CHANNELS 3 Zrotation Xrotation Yrotation
									JOINT LeftHandIndex2
									{
										OFFSET	 0.000000	 0.000000	 0.047236
										CHANNELS 3 Zrotation Xrotation Yrotation
										JOINT LeftHandIndex3
										{
											OFFSET	-0.004284	-0.000551	 0.038166
											CHANNELS 3 Zrotation Xrotation Yrotation
											End Site
											{
												OFFSET	-0.004284	-0.000551	 0.038166
											}
										}
									}
								}
							}
						}
					}
				}
				JOINT Neck
				{
					OFFSET	 0.000000	 0.000000	 0.176489
					CHANNELS 3 Zrotation Xrotation Yrotation
					JOINT Head
					{
						OFFSET	 0.000000	-0.001747	 0.077940
						CHANNELS 3 Zrotation Xrotation Yrotation
						End Site
						{
							OFFSET	 0.000000	-0.001747	 0.077940
						}
					}
				}
				JOINT RightShoulder
				{
					OFFSET	-0.080363	 0.000306	 0.159706
					CHANNELS 3 Zrotation Xrotation Yrotation
					JOINT RightArm
					{
						OFFSET	 0.000000	 0.000000	 0.164196
						CHANNELS 3 Zrotation Xrotation Yrotation
						JOINT RightForeArm
						{
							OFFSET	 0.000000	 0.000000	 0.365611
							CHANNELS 3 Zrotation Xrotation Yrotation
							JOINT RightHand
							{
								OFFSET	 0.000000	 0.000000	 0.360648
								CHANNELS 3 Zrotation Xrotation Yrotation
								JOINT RightHandIndex1
								{
									OFFSET	 0.000000	 0.000000	 0.069977
									CHANNELS 3 Zrotation Xrotation Yrotation
									JOINT RightHandIndex2
									{
										OFFSET	 0.000000	 0.000000	 0.052305
										CHANNELS 3 Zrotation Xrotation Yrotation
										JOINT RightHandIndex3
										{
											OFFSET	 0.009002	-0.000782	 0.042196
											CHANNELS 3 Zrotation Xrotation Yrotation
											End Site
											{
												OFFSET	 0.009002	-0.000782	 0.042196
											}
										}
									}
								}
							}
						}
					}
				}
			}
		}
	}
}
MOTION
Frames:    4
Frame Time: 0.03333334
 0.000141	 0.026132	 1.231829	-0.001957	 0.003718	 0.145883	 25.467330	-13.981700	 175.467200	 0.949656	-32.139680	-2.071284	-21.310130	 78.821270	 15.995730	-2.385833	 28.452760	 0.000004	-25.686790	-14.226340	-175.879500	-0.947075	-32.111640	 2.030991	 19.824280	 78.687600	-14.591780	 2.384658	 28.388730	 0.000004	 33.251060	 2.710744	 0.273811	-1.859088	 3.697788	-0.691431	 5.628998	-4.587574	 1.214395	-91.776240	 78.527420	-180.000000	 41.454540	 31.238920	-50.846440	-26.887330	 3.048334	-8.384496	-44.231680	 1.360062	-4.032462	-2.635965	 4.993658	 6.788941	-5.165319	 0.784187	 3.516649	-5.225038	 0.466231	 0.424329	-0.000002	-3.783157	-0.089647	 5.475435	 4.724849	-0.226077	 89.782070	 78.203900	-180.000000	 2.614289	 12.923930	 103.975700	-15.562910	 2.741914	 8.538007	 18.953670	-1.884845	-5.811687	 6.112037	 4.509576	-0.364401	 4.968462	 1.518543	-9.347576	 5.168945	 0.703820	 2.021906
 0.000116	 0.026206	 1.232148	-0.001651	 0.003807	 0.138571	 25.473860	-13.919950	 175.471600	 0.954900	-32.016260	-2.061393	-21.169030	 78.762970	 15.851550	-2.385833	 28.452760	 0.000004	-25.690230	-14.180230	-175.873300	-0.951651	-32.001970	 2.022362	 19.691350	 78.633270	-14.455280	 2.384658	 28.388730	 0.000004	 31.416150	 2.706713	 0.266026	-1.776105	 3.709770	-0.658374	 5.378072	-4.615127	 1.161102	-91.776220	 78.527430	-180.000000	 41.529980	 31.234330	-50.914870	-24.967510	 2.503441	-7.636122	-44.427410	 1.348674	-4.034549	-2.635965	 4.993658	 6.788941	-5.165319	 0.784187	 3.516649	-5.225038	 0.466231	 0.424329	-0.000002	-3.783157	-0.089647	 5.230134	 4.745954	-0.216900	 89.782130	 78.203870	 180.000000	 2.579623	 12.988340	 103.986400	-17.531350	 2.191581	 7.776358	 19.146230	-1.969857	-5.808741	 6.112037	 4.509576	-0.364401	 4.968462	 1.518543	-9.347576	 5.168945	 0.703820	 2.021906
 0.000097	 0.026281	 1.232466	-0.001712	 0.004379	 0.132380	 25.480460	-13.859470	 175.474800	 0.960111	-31.893170	-2.051550	-21.030610	 78.704460	 15.710160	-2.385833	 28.452760	 0.000004	-25.693510	-14.135650	-175.868300	-0.956131	-31.894200	 2.013901	 19.560750	 78.579190	-14.321190	 2.384658	 28.388730	 0.000004	 28.845210	 2.701912	 0.253335	-1.671461	 3.723140	-0.618614	 5.062853	-4.646727	 1.094523	-91.776170	 78.527450	 180.000000	 41.632930	 31.240260	-51.020890	-22.767900	 1.948826	-6.751795	-44.632430	 1.333263	-4.038072	-2.635965	 4.993658	 6.788941	-5.165319	 0.784187	 3.516649	-5.225038	 0.466231	 0.424329	-0.000002	-3.783157	-0.089647	 4.922308	 4.771693	-0.205227	 89.782140	 78.203890	 180.000000	 2.510628	 13.070140	 103.974000	-19.791830	 1.631309	 6.880610	 19.352580	-2.077014	-5.804993	 6.112037	 4.509576	-0.364401	 4.968462	 1.518543	-9.347576	 5.168945	 0.703820	 2.021906
 0.000091	 0.026340	 1.232684	-0.001848	 0.004993	 0.125829	 25.485610	-13.816390	 175.479000	 0.963758	-31.806480	-2.044637	-20.934450	 78.662830	 15.612010	-2.385833	 28.452760	 0.000004	-25.695130	-14.109190	-175.863600	-0.959034	-31.823880	 2.008396	 19.470760	 78.542810	-14.228660	 2.384658	 28.388730	 0.000004	 25.882360	 2.697251	 0.239716	-1.558942	 3.735942	-0.576148	 4.724090	-4.677654	 1.022641	-91.776190	 78.527430	-180.000000	 41.749830	 31.255930	-51.151180	-20.585560	 1.473454	-5.851103	-44.818390	 1.315771	-4.042623	-2.635965	 4.993658	 6.788941	-5.165319	 0.784187	 3.516649	-5.225038	 0.466231	 0.424329	-0.000002	-3.783157	-0.089647	 4.591821	 4.798093	-0.192494	 89.782100	 78.203890	 180.000000	 2.575389	 13.160310	 103.964400	-22.035470	 1.150135	 5.965677	 19.540390	-2.183543	-5.800791	 6.112037	 4.509576	-0.364401	 4.968462	 1.518543	-9.347576	 5.168945	 0.703820	 2.021906
